HIERARCHY
ROOT Hips
{
	OFFSET 0.00000 0.00000 0.00000
	CHANNELS 6 Xposition Yposition Zposition Zrotation Yrotation Xrotation 
	JOINT LHipJoint
	{
		OFFSET 0 0 0
		CHANNELS 3 Zrotation Yrotation Xrotation
		JOINT LeftUpLeg
		{
			OFFSET 1.54859 -1.61379 0.86856
			CHANNELS 3 Zrotation Yrotation Xrotation
			JOINT LeftLeg
			{
				OFFSET 2.25087 -6.18423 0.00000
				CHANNELS 3 Zrotation Yrotation Xrotation
				JOINT LeftFoot
				{
					OFFSET 2.40328 -6.60297 0.00000
					CHANNELS 3 Zrotation Yrotation Xrotation
					JOINT LeftToeBase
					{
						OFFSET 0.17435 -0.47901 2.02453
						CHANNELS 3 Zrotation Yrotation Xrotation
						End Site
						{
							OFFSET 0.00000 -0.00000 1.04844
						}
					}
				}
			}
		}
	}
	JOINT RHipJoint
	{
		OFFSET 0 0 0
		CHANNELS 3 Zrotation Yrotation Xrotation
		JOINT RightUpLeg
		{
			OFFSET -1.54669 -1.61379 0.86856
			CHANNELS 3 Zrotation Yrotation Xrotation
			JOINT RightLeg
			{
				OFFSET -2.28132 -6.26789 0.00000
				CHANNELS 3 Zrotation Yrotation Xrotation
				JOINT RightFoot
				{
					OFFSET -2.51636 -6.91365 0.00000
					CHANNELS 3 Zrotation Yrotation Xrotation
					JOINT RightToeBase
					{
						OFFSET -0.15124 -0.41552 2.21090
						CHANNELS 3 Zrotation Yrotation Xrotation
						End Site
						{
							OFFSET -0.00000 -0.00000 1.13399
						}
					}
				}
			}
		}
	}
	JOINT LowerBack
	{
		OFFSET 0 0 0
		CHANNELS 3 Zrotation Yrotation Xrotation
		JOINT Spine
		{
			OFFSET -0.04287 2.26161 -0.25690
			CHANNELS 3 Zrotation Yrotation Xrotation
			JOINT Spine1
			{
				OFFSET 0.02248 2.28395 -0.10140
				CHANNELS 3 Zrotation Yrotation Xrotation
				JOINT Neck
				{
					OFFSET 0 0 0
					CHANNELS 3 Zrotation Yrotation Xrotation
					JOINT Neck1
					{
						OFFSET -0.11644 1.38496 0.11345
						CHANNELS 3 Zrotation Yrotation Xrotation
						JOINT Head
						{
							OFFSET 0.29383 1.36600 0.06642
							CHANNELS 3 Zrotation Yrotation Xrotation
							End Site
							{
								OFFSET 0.11075 1.41395 -0.00294
							}
						}
					}
				}
				JOINT LeftShoulder
				{
					OFFSET 0 0 0
					CHANNELS 3 Zrotation Yrotation Xrotation
					JOINT LeftArm
					{
						OFFSET 3.51628 0.59542 -0.30346
						CHANNELS 3 Zrotation Yrotation Xrotation
						JOINT LeftForeArm
						{
							OFFSET 4.76405 -0.00000 0.00000
							CHANNELS 3 Zrotation Yrotation Xrotation
							JOINT LeftHand
							{
								OFFSET 3.13759 -0.00000 -0.00000
								CHANNELS 3 Zrotation Yrotation Xrotation
								JOINT LeftFingerBase
								{
									OFFSET 0 0 0
									CHANNELS 3 Zrotation Yrotation Xrotation
									JOINT LeftHandIndex1
									{
										OFFSET 0.73226 -0.00000 -0.00000
										CHANNELS 3 Zrotation Yrotation Xrotation
										End Site
										{
											OFFSET 0.59037 -0.00000 -0.00000
										}
									}
								}
								JOINT LThumb
								{
									OFFSET 0 0 0
									CHANNELS 3 Zrotation Yrotation Xrotation
									End Site
									{
										OFFSET 0.59938 -0.00000 0.59938
									}
								}
							}
						}
					}
				}
				JOINT RightShoulder
				{
					OFFSET 0 0 0
					CHANNELS 3 Zrotation Yrotation Xrotation
					JOINT RightArm
					{
						OFFSET -3.30990 0.84213 -0.36430
						CHANNELS 3 Zrotation Yrotation Xrotation
						JOINT RightForeArm
						{
							OFFSET -5.10161 -0.00000 -0.00000
							CHANNELS 3 Zrotation Yrotation Xrotation
							JOINT RightHand
							{
								OFFSET -3.23267 -0.00000 -0.00000
								CHANNELS 3 Zrotation Yrotation Xrotation
								JOINT RightFingerBase
								{
									OFFSET 0 0 0
									CHANNELS 3 Zrotation Yrotation Xrotation
									JOINT RightHandIndex1
									{
										OFFSET -0.70200 -0.00000 -0.00000
										CHANNELS 3 Zrotation Yrotation Xrotation
										End Site
										{
											OFFSET -0.56597 -0.00000 -0.00000
										}
									}
								}
								JOINT RThumb
								{
									OFFSET 0 0 0
									CHANNELS 3 Zrotation Yrotation Xrotation
									End Site
									{
										OFFSET -0.57461 -0.00000 0.57461
									}
								}
							}
						}
					}
				}
			}
		}
	}
}
MOTION
Frames: 11
Frame Time: .0083333
2.1356 14.1487 4.4744 165.8440 10.2566 -179.6560 0.0000 0.0000 0.0000 -15.3709 0.2092 -41.7545 12.0236 18.4006 66.0637 0.9318 1.3339 -18.7647 2.0924 -9.0560 -25.9706 0.0000 0.0000 0.0000 24.1501 -6.3438 -21.4900 -11.4356 -18.1418 64.1884 -3.1691 5.2839 -32.5843 -0.0224 -0.9659 2.6550 -4.4261 1.4054 23.6716 -3.0284 3.8404 12.2606 -1.6014 3.0327 0.3762 -14.3860 -7.1690 1.4849 27.8417 -9.0243 -16.1504 11.6746 -5.9893 -2.6514 -0.0000 0.0000 0.0000 -92.4126 -38.1445 44.4515 61.0296 -56.5781 -35.1991 -0.0000 -0.0000 4.2035 35.7748 27.6462 18.4871 -7.1250 0.0000 -0.0000 6.8935 62.6985 2.9712 -0.0000 0.0000 0.0000 90.1969 30.1618 17.0357 -11.6554 19.2858 -1.9870 0.0000 0.0000 37.0956 -48.5008 47.0323 -39.5943 7.1250 -0.0000 -0.0000 -3.2022 28.2680 -4.3412
2.5136 14.1796 4.2288 165.3650 11.9500 -180.0210 0.0000 0.0000 0.0000 -15.8736 -0.5325 -43.9169 12.0970 18.4314 66.2960 0.8355 1.3106 -17.7892 2.6216 -10.0558 -29.1575 0.0000 0.0000 0.0000 24.8869 -6.6472 -18.5992 -10.5929 -17.7300 61.4521 -2.9134 5.1140 -31.2004 -0.0257 -1.0355 2.8466 -5.0464 1.8776 23.3461 -3.7175 4.2778 12.0566 -2.0810 3.2298 0.3432 -14.2683 -7.2896 1.5614 28.3396 -9.2568 -15.9157 11.8092 -6.1543 -2.5161 -0.0000 0.0000 0.0000 -90.5687 -41.5499 43.1213 57.5091 -55.6088 -32.2769 -0.0000 -0.0000 1.5653 34.5277 28.0874 17.9482 -7.1250 0.0000 -0.0000 5.1485 62.8421 2.2340 -0.0000 0.0000 0.0000 90.1722 29.8315 12.6628 -10.8608 18.0746 -1.7325 0.0000 0.0000 38.5276 -47.5050 45.5126 -37.9072 7.1250 -0.0000 -0.0000 -3.4634 26.3735 -4.6471
2.8921 14.2122 3.9731 165.4040 13.4527 -180.1320 0.0000 0.0000 0.0000 -15.6187 -1.4728 -46.1191 12.0374 18.4064 66.1074 0.7194 0.9425 -16.3919 3.5152 -11.4858 -33.9362 0.0000 0.0000 0.0000 25.8411 -7.5084 -15.8833 -9.7006 -17.2380 58.4828 -2.5900 6.8005 -29.1266 -0.1808 -2.7389 7.5526 -5.3621 2.3149 22.8731 -4.0025 4.6840 11.7829 -2.2816 3.3837 0.2794 -15.0312 -7.5932 1.8263 29.4671 -9.7693 -15.8983 12.3458 -6.4753 -2.3018 -0.0000 0.0000 0.0000 -88.9878 -44.4613 41.4599 54.3123 -54.5933 -29.6547 -0.0000 0.0000 -1.0164 32.6167 28.7038 17.0848 -7.1250 0.0000 -0.0000 2.4814 62.9907 1.0842 -0.0000 0.0000 0.0000 89.5007 29.1637 8.5349 -10.3367 17.2646 -1.5734 0.0000 0.0000 39.6488 -46.7611 44.5874 -36.7426 7.1250 -0.0000 -0.0000 -3.5353 25.1384 -4.7084
3.2660 14.2372 3.7084 165.3580 14.8651 -180.2050 0.0000 0.0000 0.0000 -15.2218 -2.8845 -48.0591 11.8581 18.3300 65.5383 0.6315 -0.0398 -15.0042 3.9076 -12.0364 -35.8607 0.0000 0.0000 0.0000 26.7613 -8.3591 -13.0099 -8.7561 -16.6482 55.2427 -2.2679 4.8830 -27.3939 -0.0027 0.3334 -0.9160 -5.9260 2.7102 22.3411 -4.1468 4.9775 11.4755 -2.1629 3.4585 0.1807 -15.8986 -7.8018 1.9924 30.4189 -10.1694 -15.8057 12.8387 -6.7125 -2.0717 0.0000 -0.0000 0.0000 -87.4910 -46.9299 39.3253 51.3065 -53.5090 -27.2211 -0.0000 0.0000 -3.4791 30.7715 29.2805 16.2368 -7.1250 0.0000 -0.0000 -0.0933 63.1083 -0.0410 0.0000 -0.0000 0.0000 88.3073 27.9968 6.3237 -10.2063 17.0616 -1.5349 0.0000 0.0000 39.3761 -46.4142 43.5062 -35.8777 7.1250 -0.0000 -0.0000 -3.8291 23.9300 -5.0612
3.6544 14.2766 3.4360 165.1650 16.2341 -180.2290 0.0000 0.0000 0.0000 -14.7708 -4.5882 -49.7354 11.5462 18.1921 64.5429 0.5316 -1.3027 -13.3846 3.9278 -12.0637 -35.9577 0.0000 0.0000 0.0000 27.3343 -8.8328 -9.9872 -7.7970 -15.9679 51.8280 -1.8769 5.1738 -24.7772 -0.0244 1.0075 -2.7695 -6.6032 3.0560 21.6787 -4.3906 5.2255 11.1907 -2.0634 3.5173 0.1754 -16.3200 -9.9289 1.9242 31.1224 -10.2936 -14.6181 12.9969 -5.2658 -1.4978 -0.0000 0.0000 0.0000 -85.5534 -49.2503 36.7673 48.3796 -52.3207 -24.8858 -0.0000 0.0000 -5.9432 29.3077 29.7581 15.5689 -7.1250 0.0000 -0.0000 -2.1490 63.2185 -0.9504 -0.0000 0.0000 0.0000 87.3117 26.6778 5.0335 -10.3204 17.2392 -1.5686 0.0000 0.0000 38.7143 -46.8344 42.0571 -35.5344 7.1250 -0.0000 -0.0000 -4.6038 22.7098 -6.0386
4.0443 14.3039 3.1591 165.4060 17.4283 -180.0430 0.0000 0.0000 0.0000 -13.6674 -6.5081 -51.4728 11.1709 18.0177 63.3353 0.3911 -2.7202 -11.1886 4.2515 -12.4877 -37.4800 0.0000 0.0000 0.0000 28.3161 -9.7330 -7.1271 -6.8340 -15.1905 48.2437 -1.4420 1.3903 -22.3009 -1.4240 7.5462 -21.3439 -6.7365 3.2892 20.9818 -4.6560 5.4324 10.8868 -2.2748 3.5783 0.1983 -16.2798 -10.1990 1.8254 31.6139 -10.6449 -14.4613 13.1272 -5.4386 -1.3037 -0.0000 0.0000 0.0000 -83.0971 -51.2754 33.8992 45.8161 -51.1621 -22.8727 -0.0000 0.0000 -7.9220 27.6778 30.1404 14.7550 -7.1250 0.0000 -0.0000 -4.3627 63.1792 -1.9268 -0.0000 0.0000 0.0000 86.6004 25.2361 4.2721 -10.5268 17.5594 -1.6303 0.0000 0.0000 37.7163 -47.6984 40.8264 -35.6951 7.1250 -0.0000 -0.0000 -5.4895 21.9059 -7.1657
4.4444 14.3439 2.8777 166.0600 18.4518 -179.7530 0.0000 0.0000 0.0000 -12.0108 -8.4507 -52.8914 10.6910 17.7805 61.7738 0.2360 -4.6594 -8.7435 4.6380 -12.9642 -39.2345 0.0000 0.0000 0.0000 29.5916 -9.7841 -4.0634 -5.9507 -14.3804 44.7836 -1.0308 5.3517 -18.1493 -0.2390 3.1459 -8.6853 -6.4511 3.3865 20.3547 -4.8015 5.5279 10.6052 -2.5680 3.5942 0.2259 -16.1609 -10.4661 1.6338 32.0934 -10.9838 -14.2577 13.2293 -5.5961 -1.0881 0.0000 -0.0000 0.0000 -80.1181 -52.8931 30.5538 43.7231 -50.1274 -21.2542 -0.0000 0.0000 -9.2138 26.1718 30.5082 14.0088 -7.1250 0.0000 -0.0000 -6.4069 63.1560 -2.8293 0.0000 -0.0000 0.0000 85.7905 23.6832 4.5679 -10.7940 17.9719 -1.7118 0.0000 0.0000 35.7955 -48.9587 40.0210 -36.4529 7.1250 -0.0000 -0.0000 -6.3973 21.7313 -8.3502
4.8402 14.3645 2.5889 166.4390 19.3343 -179.6490 0.0000 0.0000 0.0000 -10.5793 -10.5506 -53.9331 10.1708 17.5048 60.0578 0.0738 -6.7148 -6.3546 4.8024 -13.1578 -39.9619 0.0000 0.0000 0.0000 30.6367 -9.8937 -0.9301 -5.1266 -13.5250 41.3669 -0.6087 6.0504 -13.9254 -0.3281 3.6814 -10.1819 -6.5232 3.4257 19.7744 -4.8679 5.5131 10.4016 -2.5552 3.5472 0.2905 -17.2732 -10.7703 1.5146 33.4602 -11.4575 -13.9634 13.9063 -5.7991 -0.6346 0.0000 -0.0000 0.0000 -76.6323 -54.0686 26.6946 42.0882 -49.2595 -20.0073 -0.0000 0.0000 -10.0842 24.4610 31.0380 13.2002 -7.1250 0.0000 -0.0000 -8.7937 63.2402 -3.9080 0.0000 -0.0000 0.0000 84.7554 22.1198 5.4268 -11.0949 18.4335 -1.8058 0.0000 0.0000 33.4169 -49.9718 40.0320 -37.4445 7.1250 -0.0000 -0.0000 -6.8719 22.2729 -9.0119
5.2379 14.3782 2.2955 166.5910 20.0378 -179.5530 0.0000 0.0000 0.0000 -9.4348 -12.7467 -54.7830 9.6069 17.1828 58.1664 -0.0722 -8.4080 -4.3199 5.2087 -13.6151 -41.7168 0.0000 0.0000 0.0000 31.4677 -9.9289 1.9001 -4.4038 -12.6792 38.1792 -0.2412 6.6164 -9.2489 -0.4721 4.4068 -12.2241 -6.8414 3.4075 19.1311 -4.8866 5.4042 10.2350 -2.3300 3.4445 0.4099 -16.9825 -11.0608 1.3766 33.4301 -11.8252 -14.0924 13.7829 -5.9889 -0.5712 0.0000 -0.0000 0.0000 -73.4054 -54.8889 22.5407 40.8716 -48.5779 -19.0902 -0.0000 0.0000 -10.9784 21.0611 31.7273 11.4481 -7.1250 0.0000 -0.0000 -13.2682 63.0281 -5.8605 0.0000 -0.0000 0.0000 83.3463 20.4927 6.9849 -11.4452 18.9674 -1.9181 0.0000 0.0000 30.4535 -50.5995 40.8496 -38.5293 7.1250 -0.0000 -0.0000 -6.8373 23.4305 -9.0387
5.6528 14.3803 2.0015 166.9260 20.8967 -179.4570 0.0000 0.0000 0.0000 -8.2994 -14.2208 -55.4914 9.0391 16.8328 56.2253 -0.2020 -9.9705 -2.7902 5.8578 -14.2891 -44.4082 0.0000 0.0000 0.0000 32.5593 -9.5661 4.7545 -3.7824 -11.8651 35.2564 0.0688 7.2872 -3.3254 -0.1530 2.5208 -6.9473 -7.2944 3.4682 18.4807 -4.8118 5.3844 10.0901 -1.9483 3.3764 0.5417 -16.9915 -11.6379 1.0888 34.0367 -12.6014 -14.0904 13.8944 -6.3656 -0.2399 0.0000 -0.0000 0.0000 -70.2792 -55.3669 18.2787 40.2276 -48.2042 -18.6087 -0.0000 0.0000 -13.2313 16.6414 32.7796 9.1923 -7.1250 0.0000 -0.0000 -19.1296 62.8852 -8.4694 0.0000 -0.0000 0.0000 81.9007 18.8069 8.7398 -11.8255 19.5425 -2.0436 0.0000 0.0000 27.6324 -51.4764 41.8295 -39.9536 7.1250 -0.0000 -0.0000 -6.8331 24.8753 -9.1186
6.0568 14.3814 1.7052 166.9420 21.5970 -179.3810 0.0000 0.0000 0.0000 -7.5740 -15.9077 -56.0237 8.4966 16.4727 54.3325 -0.3828 -11.7822 -0.4799 5.8094 -14.2411 -44.2119 0.0000 0.0000 0.0000 33.2500 -9.0607 7.2802 -3.2637 -11.1101 32.6522 0.1566 7.1686 4.2769 -0.0646 -1.6393 4.5097 -7.7656 3.4394 17.8560 -4.8885 5.2398 9.8547 -1.7037 3.2543 0.5820 -16.8096 -12.0142 1.0552 34.3626 -13.1225 -14.0796 13.9077 -6.6397 -0.0686 0.0000 -0.0000 0.0000 -66.9850 -55.2888 14.4757 40.2203 -48.1999 -18.6033 -0.0000 0.0000 -17.2301 12.4547 34.3255 7.0993 -7.1250 0.0000 -0.0000 -25.1732 63.2061 -11.4934 0.0000 -0.0000 0.0000 80.6143 16.8698 10.4309 -12.2351 20.1562 -2.1826 0.0000 0.0000 25.2329 -52.5894 42.5672 -41.4904 7.1250 -0.0000 -0.0000 -7.0185 26.2068 -9.4443
